{
  "accessors": [
    {
      "bufferView": 2,
      "componentType": 5126,
      "count": 65532,
      "max": [
        0.15459060668945313,
        0.0811929926276207,
        0.11109699308872223
      ],
      "min": [
        -0.14990535378456116,
        0.0015899986028671265,
        -0.0823834091424942
      ],
      "type": "VEC3"
    },
    {
      "bufferView": 2,
      "byteOffset": 786384,
      "componentType": 5126,
      "count": 65532,
      "max": [
        0.9999043941497803,
        0.999999463558197,
        0.9999818801879883
      ],
      "min": [
        -0.9997654557228088,
        -0.9845988750457764,
        -0.9999837279319763
      ],
      "type": "VEC3"
    },
    {
      "bufferView": 1,
      "componentType": 5126,
      "count": 65532,
      "max": [
        0.9918969869613647,
        0.992048978805542
      ],
      "min": [
        0.007964000105857849,
        0.0080680251121521
      ],
      "type": "VEC2"
    },
    {
      "bufferView": 0,
      "componentType": 5125,
      "count": 344655,
      "type": "SCALAR"
    },
    {
      "bufferView": 2,
      "byteOffset": 1572768,
      "componentType": 5126,
      "count": 9883,
      "max": [
        0.12673144042491913,
        0.07620499283075333,
        0.10692331939935684
      ],
      "min": [
        -0.11616040766239166,
        0.0020679980516433716,
        -0.08249087631702423
      ],
      "type": "VEC3"
    },
    {
      "bufferView": 2,
      "byteOffset": 1691364,
      "componentType": 5126,
      "count": 9883,
      "max": [
        0.9988723397254944,
        0.9998408555984497,
        0.9995278120040894
      ],
      "min": [
        -0.9996607899665833,
        -0.9962477684020996,
        -0.9998230934143066
      ],
      "type": "VEC3"
    },
    {
      "bufferView": 1,
      "byteOffset": 524256,
      "componentType": 5126,
      "count": 9883,
      "max": [
        0.9908339977264404,
        0.8251349925994873
      ],
      "min": [
        0.20901000499725342,
        0.00827699899673462
      ],
      "type": "VEC2"
    },
    {
      "bufferView": 0,
      "byteOffset": 1378620,
      "componentType": 5125,
      "count": 49386,
      "type": "SCALAR"
    },
    {
      "bufferView": 2,
      "byteOffset": 1809960,
      "componentType": 5126,
      "count": 27126,
      "max": [
        0.14874185621738434,
        0.0811929926276207,
        0.11109699308872223
      ],
      "min": [
        -0.14987808465957642,
        0.002473995089530945,
        -0.0823834091424942
      ],
      "type": "VEC3"
    },
    {
      "bufferView": 2,
      "byteOffset": 2135472,
      "componentType": 5126,
      "count": 27126,
      "max": [
        0.999950647354126,
        0.9999389052391052,
        0.999948263168335
      ],
      "min": [
        -0.999987006187439,
        -0.9995163679122925,
        -0.9998918175697327
      ],
      "type": "VEC3"
    },
    {
      "bufferView": 1,
      "byteOffset": 603320,
      "componentType": 5126,
      "count": 27126,
      "max": [
        0.9918680191040039,
        0.9920629858970642
      ],
      "min": [
        0.007946000434458256,
        0.3164510130882263
      ],
      "type": "VEC2"
    },
    {
      "bufferView": 0,
      "byteOffset": 1576164,
      "componentType": 5125,
      "count": 113703,
      "type": "SCALAR"
    }
  ],
  "asset": {
    "extras": {
      "author": "Terrie Simmons-Ehrhardt (https://sketchfab.com/terrielsimmons)",
      "license": "CC-BY-4.0 (http://creativecommons.org/licenses/by/4.0/)",
      "source": "https://sketchfab.com/3d-models/cheeseburger-bao-buns-098ebbb16fb64559a9e025119d8f5449",
      "title": "Cheeseburger Bao Buns"
    },
    "generator": "Sketchfab-13.42.0",
    "version": "2.0"
  },
  "bufferViews": [
    {
      "buffer": 0,
      "byteLength": 2030976,
      "name": "floatBufferViews",
      "target": 34963
    },
    {
      "buffer": 0,
      "byteLength": 820328,
      "byteOffset": 2030976,
      "byteStride": 8,
      "name": "floatBufferViews",
      "target": 34962
    },
    {
      "buffer": 0,
      "byteLength": 2460984,
      "byteOffset": 2851304,
      "byteStride": 12,
      "name": "floatBufferViews",
      "target": 34962
    }
  ],
  "buffers": [
    {
      "byteLength": 5312288,
      "uri": "scene.bin"
    }
  ],
  "extensionsUsed": [
    "KHR_materials_unlit"
  ],
  "images": [
    {
      "uri": "textures/material0000_baseColor.jpeg"
    },
    {
      "uri": "textures/material0001_baseColor.jpeg"
    }
  ],
  "materials": [
    {
      "extensions": {
        "KHR_materials_unlit": {}
      },
      "name": "material0000",
      "pbrMetallicRoughness": {
        "baseColorTexture": {
          "index": 0
        },
        "metallicFactor": 0.0
      }
    },
    {
      "extensions": {
        "KHR_materials_unlit": {}
      },
      "name": "material0001",
      "pbrMetallicRoughness": {
        "baseColorTexture": {
          "index": 1
        },
        "metallicFactor": 0.0
      }
    }
  ],
  "meshes": [
    {
      "name": "scan_0",
      "primitives": [
        {
          "attributes": {
            "NORMAL": 1,
            "POSITION": 0,
            "TEXCOORD_0": 2
          },
          "indices": 3,
          "material": 0,
          "mode": 4
        }
      ]
    },
    {
      "name": "scan_0",
      "primitives": [
        {
          "attributes": {
            "NORMAL": 5,
            "POSITION": 4,
            "TEXCOORD_0": 6
          },
          "indices": 7,
          "material": 0,
          "mode": 4
        }
      ]
    },
    {
      "name": "scan_1",
      "primitives": [
        {
          "attributes": {
            "NORMAL": 9,
            "POSITION": 8,
            "TEXCOORD_0": 10
          },
          "indices": 11,
          "material": 1,
          "mode": 4
        }
      ]
    }
  ],
  "nodes": [
    {
      "children": [
        1
      ],
      "matrix": [
        1.0,
        0.0,
        0.0,
        0.0,
        0.0,
        2.220446049250313e-16,
        -1.0,
        0.0,
        0.0,
        1.0,
        2.220446049250313e-16,
        0.0,
        0.0,
        0.0,
        0.0,
        1.0
      ],
      "name": "Sketchfab_model"
    },
    {
      "children": [
        2
      ],
      "matrix": [
        1.0,
        0.0,
        0.0,
        0.0,
        0.0,
        2.220446049250313e-16,
        1.0,
        0.0,
        0.0,
        -1.0,
        2.220446049250313e-16,
        0.0,
        0.0,
        0.0,
        0.0,
        1.0
      ],
      "name": "USDRoot"
    },
    {
      "children": [
        3
      ],
      "name": "uSsAFIU5WiA2yN7pSsDy"
    },
    {
      "children": [
        4,
        5,
        6
      ],
      "name": "Geom"
    },
    {
      "mesh": 0,
      "name": "scan_0"
    },
    {
      "mesh": 1,
      "name": "scan_0"
    },
    {
      "mesh": 2,
      "name": "scan_1"
    }
  ],
  "samplers": [
    {
      "magFilter": 9729,
      "minFilter": 9987,
      "wrapS": 10497,
      "wrapT": 10497
    }
  ],
  "scene": 0,
  "scenes": [
    {
      "name": "Sketchfab_Scene",
      "nodes": [
        0
      ]
    }
  ],
  "textures": [
    {
      "sampler": 0,
      "source": 0
    },
    {
      "sampler": 0,
      "source": 1
    }
  ]
}
